<svg width="4351" height="662" viewBox="0 0 4351 662" fill="none" xmlns="http://www.w3.org/2000/svg">
<rect width="4351" height="662" fill="url(#paint0_linear_636_2)"/>
<g filter="url(#filter0_d_636_2)">
<path d="M2214.04 299.055L2193.65 351.506L2193.65 351.518L2193.65 351.528L2159.21 454.26L2022.11 299.055H2214.04Z" fill="white" stroke="url(#paint1_linear_636_2)"/>
<path d="M2214.76 337.266L2152.36 502.568L2218.73 544.087L2214.76 337.266Z" fill="white" stroke="url(#paint2_linear_636_2)"/>
<path d="M2375.38 143.5L2228.27 286.968V143.5H2375.38Z" fill="white" stroke="url(#paint3_linear_636_2)"/>
<path d="M2218.75 287.654H2092.83L2178.73 193.757L2178.73 193.753L2218.75 149.056V287.654Z" fill="white" stroke="url(#paint4_linear_636_2)"/>
<path d="M2038.23 180.128L2104.47 255.398L2080.79 287.654H2011.49V180.128H2038.23Z" fill="white" stroke="url(#paint5_linear_636_2)"/>
<path d="M2002.18 220.051H1976.12L1995.17 198.962L2002.18 191.514V220.051Z" fill="white" stroke="url(#paint6_linear_636_2)"/>
</g>
<defs>
<filter id="filter0_d_636_2" x="1945" y="117" width="461.614" height="462" filterUnits="userSpaceOnUse" color-interpolation-filters="sRGB">
<feFlood flood-opacity="0" result="BackgroundImageFix"/>
<feColorMatrix in="SourceAlpha" type="matrix" values="0 0 0 0 0 0 0 0 0 0 0 0 0 0 0 0 0 0 127 0" result="hardAlpha"/>
<feOffset dy="4"/>
<feGaussianBlur stdDeviation="15"/>
<feComposite in2="hardAlpha" operator="out"/>
<feColorMatrix type="matrix" values="0 0 0 0 0 0 0 0 0 0.109804 0 0 0 0 0.498039 0 0 0 1 0"/>
<feBlend mode="normal" in2="BackgroundImageFix" result="effect1_dropShadow_636_2"/>
<feBlend mode="normal" in="SourceGraphic" in2="effect1_dropShadow_636_2" result="shape"/>
</filter>
<linearGradient id="paint0_linear_636_2" x1="0" y1="331" x2="4351" y2="331" gradientUnits="userSpaceOnUse">
<stop stop-color="#001B7D"/>
<stop offset="1" stop-color="#1A4FDA"/>
</linearGradient>
<linearGradient id="paint1_linear_636_2" x1="2021" y1="376.897" x2="2214.78" y2="376.897" gradientUnits="userSpaceOnUse">
<stop stop-color="#001B7D"/>
<stop offset="1" stop-color="#0031E3"/>
</linearGradient>
<linearGradient id="paint2_linear_636_2" x1="2151.74" y1="434.127" x2="2219.25" y2="434.127" gradientUnits="userSpaceOnUse">
<stop stop-color="#001B7D"/>
<stop offset="1" stop-color="#0031E3"/>
</linearGradient>
<linearGradient id="paint3_linear_636_2" x1="2227.77" y1="215.577" x2="2376.61" y2="215.577" gradientUnits="userSpaceOnUse">
<stop stop-color="#001B7D"/>
<stop offset="1" stop-color="#0031E3"/>
</linearGradient>
<linearGradient id="paint4_linear_636_2" x1="2091.69" y1="217.951" x2="2219.25" y2="217.951" gradientUnits="userSpaceOnUse">
<stop stop-color="#001B7D"/>
<stop offset="1" stop-color="#0031E3"/>
</linearGradient>
<linearGradient id="paint5_linear_636_2" x1="2010.99" y1="233.891" x2="2105.11" y2="233.891" gradientUnits="userSpaceOnUse">
<stop stop-color="#001B7D"/>
<stop offset="1" stop-color="#0031E3"/>
</linearGradient>
<linearGradient id="paint6_linear_636_2" x1="1975" y1="205.403" x2="2002.68" y2="205.403" gradientUnits="userSpaceOnUse">
<stop stop-color="#001B7D"/>
<stop offset="1" stop-color="#0031E3"/>
</linearGradient>
</defs>
</svg>
